<svg aria-hidden="true" style="position: absolute; width: 0; height: 0; overflow: hidden;" version="1.1" xmlns="http://www.w3.org/2000/svg" xmlns:xlink="http://www.w3.org/1999/xlink">
<defs>
<symbol id="MAGNIFYING-GLASS_opt" viewBox="0 0 32 32">
<title>MAGNIFYING-GLASS_opt</title>
<path d="M29.312 25.568c0.48 0.48 0.768 1.136 0.768 1.872 0 1.456-1.184 2.64-2.64 2.64-0.736 0-1.392-0.304-1.872-0.768l-7.728-7.744c-1.568 0.928-3.408 1.472-5.36 1.472-5.832 0-10.56-4.728-10.56-10.56v0c0-5.84 4.72-10.56 10.56-10.56s10.56 4.72 10.56 10.56c0 1.952-0.544 3.776-1.472 5.36l7.744 7.728zM12.48 4.56c-4.368 0-7.92 3.552-7.92 7.92s3.552 7.92 7.92 7.92 7.92-3.552 7.92-7.92-3.552-7.92-7.92-7.92z"></path>
</symbol>
<symbol id="SHOPPING-CART_opt" viewBox="0 0 32 32">
<title>SHOPPING-CART_opt</title>
<path d="M29.968 7.456l-3.968 8.8c-0.192 0.432-0.608 0.752-1.12 0.784l-11.392 0.752 0.656 1.888h12.416c1.456 0 2.64 1.184 2.64 2.64s-1.184 2.64-2.64 2.64c-1.456 0-2.64-1.184-2.64-2.64h-12.32c0 1.456-1.184 2.64-2.64 2.64s-2.64-1.184-2.64-2.64c0-1.456 1.184-2.64 2.64-2.64h2.384l-5.088-14.528h-3.024c-0.701-0.036-1.257-0.613-1.257-1.32s0.555-1.284 1.253-1.32l0.003-0h3.968c0.576 0 1.056 0.384 1.248 0.896l0.768 2.192h19.536c0.002 0 0.005-0 0.007-0 0.73 0 1.322 0.592 1.322 1.322 0 0.193-0.042 0.377-0.116 0.543l0.003-0.008zM10.144 8.24l2.432 6.976 11.344-0.768 2.8-6.208h-16.576z"></path>
</symbol>
</defs>
</svg>
